solid OpenSCAD_Model
  facet normal 1 0 0
    outer loop
      vertex 3.475 -4.203 35
      vertex 3.475 -6.025 35
      vertex 3.475 -4.203 4
    endloop
  endfacet
  facet normal 1 0 0
    outer loop
      vertex 3.475 4.203 4
      vertex 3.475 6.025 35
      vertex 3.475 4.203 35
    endloop
  endfacet
  facet normal 1 0 0
    outer loop
      vertex 3.475 6.025 35
      vertex 3.475 4.203 4
      vertex 3.475 6.025 0
    endloop
  endfacet
  facet normal 1 -0 0
    outer loop
      vertex 3.475 -4.203 4
      vertex 3.475 6.025 0
      vertex 3.475 4.203 4
    endloop
  endfacet
  facet normal 1 0 0
    outer loop
      vertex 3.475 -4.203 4
      vertex 3.475 -6.025 0
      vertex 3.475 6.025 0
    endloop
  endfacet
  facet normal 1 0 0
    outer loop
      vertex 3.475 -6.025 0
      vertex 3.475 -4.203 4
      vertex 3.475 -6.025 35
    endloop
  endfacet
  facet normal 0 -1 0
    outer loop
      vertex 7.025 4.025 0
      vertex 11.75 4.025 35
      vertex 7.025 4.025 35
    endloop
  endfacet
  facet normal 0 -1 -0
    outer loop
      vertex 11.75 4.025 35
      vertex 7.025 4.025 0
      vertex 11.75 4.025 0
    endloop
  endfacet
  facet normal 0 1 -0
    outer loop
      vertex 11.75 -4.025 0
      vertex 7.025 -4.025 35
      vertex 11.75 -4.025 35
    endloop
  endfacet
  facet normal 0 1 0
    outer loop
      vertex 7.025 -4.025 35
      vertex 11.75 -4.025 0
      vertex 7.025 -4.025 0
    endloop
  endfacet
  facet normal -1 0 0
    outer loop
      vertex 7.025 -6.025 0
      vertex 7.025 -4.025 35
      vertex 7.025 -4.025 0
    endloop
  endfacet
  facet normal -1 -0 0
    outer loop
      vertex 7.025 -4.025 35
      vertex 7.025 -6.025 0
      vertex 7.025 -6.025 35
    endloop
  endfacet
  facet normal -1 0 0
    outer loop
      vertex 7.025 4.025 0
      vertex 7.025 6.025 35
      vertex 7.025 6.025 0
    endloop
  endfacet
  facet normal -1 -0 0
    outer loop
      vertex 7.025 6.025 35
      vertex 7.025 4.025 0
      vertex 7.025 4.025 35
    endloop
  endfacet
  facet normal 0 1 -0
    outer loop
      vertex 7.025 -6.025 0
      vertex 3.475 -6.025 35
      vertex 7.025 -6.025 35
    endloop
  endfacet
  facet normal 0 1 0
    outer loop
      vertex 3.475 -6.025 35
      vertex 7.025 -6.025 0
      vertex 3.475 -6.025 0
    endloop
  endfacet
  facet normal 0 -1 0
    outer loop
      vertex 3.475 6.025 0
      vertex 7.025 6.025 35
      vertex 3.475 6.025 35
    endloop
  endfacet
  facet normal 0 -1 -0
    outer loop
      vertex 7.025 6.025 35
      vertex 3.475 6.025 0
      vertex 7.025 6.025 0
    endloop
  endfacet
  facet normal -1 0 0
    outer loop
      vertex 5.75 -7.25 5.8
      vertex 5.75 -8.45 15.55
      vertex 5.75 -7.25 25.3
    endloop
  endfacet
  facet normal -1 0 0
    outer loop
      vertex 5.75 -7.25 5.8
      vertex 5.75 -9.05043 14.1004
      vertex 5.75 -8.45 15.55
    endloop
  endfacet
  facet normal -1 0 0
    outer loop
      vertex 5.75 -7.25 5.8
      vertex 5.75 -10.5 13.5
      vertex 5.75 -9.05043 14.1004
    endloop
  endfacet
  facet normal -1 0 0
    outer loop
      vertex 5.75 -13.75 5.8
      vertex 5.75 -10.5 13.5
      vertex 5.75 -7.25 5.8
    endloop
  endfacet
  facet normal -1 -0 0
    outer loop
      vertex 5.75 -11.9496 14.1004
      vertex 5.75 -13.75 5.8
      vertex 5.75 -12.55 15.55
    endloop
  endfacet
  facet normal -1 -0 0
    outer loop
      vertex 5.75 -10.5 13.5
      vertex 5.75 -13.75 5.8
      vertex 5.75 -11.9496 14.1004
    endloop
  endfacet
  facet normal -1 0 0
    outer loop
      vertex 5.75 -9.05043 16.9996
      vertex 5.75 -7.25 25.3
      vertex 5.75 -8.45 15.55
    endloop
  endfacet
  facet normal -1 0 0
    outer loop
      vertex 5.75 -10.5 17.6
      vertex 5.75 -7.25 25.3
      vertex 5.75 -9.05043 16.9996
    endloop
  endfacet
  facet normal -1 0 0
    outer loop
      vertex 5.75 -13.75 25.3
      vertex 5.75 -10.5 17.6
      vertex 5.75 -11.9496 16.9996
    endloop
  endfacet
  facet normal -1 0 0
    outer loop
      vertex 5.75 -10.5 17.6
      vertex 5.75 -13.75 25.3
      vertex 5.75 -7.25 25.3
    endloop
  endfacet
  facet normal -1 0 0
    outer loop
      vertex 5.75 -12.55 15.55
      vertex 5.75 -13.75 25.3
      vertex 5.75 -11.9496 16.9996
    endloop
  endfacet
  facet normal -1 0 0
    outer loop
      vertex 5.75 -13.75 25.3
      vertex 5.75 -12.55 15.55
      vertex 5.75 -13.75 5.8
    endloop
  endfacet
  facet normal -0 0 1
    outer loop
      vertex 5.75 -7.25 25.3
      vertex 11.75 -13.75 25.3
      vertex 11.75 -7.25 25.3
    endloop
  endfacet
  facet normal 0 0 1
    outer loop
      vertex 11.75 -13.75 25.3
      vertex 5.75 -7.25 25.3
      vertex 5.75 -13.75 25.3
    endloop
  endfacet
  facet normal 1 -0 0
    outer loop
      vertex 11.75 4.025 35
      vertex 11.75 7.25 25.3
      vertex 11.75 7.25 35
    endloop
  endfacet
  facet normal 1 0 0
    outer loop
      vertex 11.75 4.025 0
      vertex 11.75 7.25 25.3
      vertex 11.75 4.025 35
    endloop
  endfacet
  facet normal 1 0 0
    outer loop
      vertex 11.75 7.25 25.3
      vertex 11.75 4.025 0
      vertex 11.75 7.25 5.8
    endloop
  endfacet
  facet normal 1 0 0
    outer loop
      vertex 11.75 7.25 5.8
      vertex 11.75 4.025 0
      vertex 11.75 7.25 0
    endloop
  endfacet
  facet normal 1 0 0
    outer loop
      vertex 11.75 13.75 25.3
      vertex 11.75 12.55 15.55
      vertex 11.75 13.75 5.8
    endloop
  endfacet
  facet normal 1 0 0
    outer loop
      vertex 11.75 13.75 25.3
      vertex 11.75 11.9496 16.9996
      vertex 11.75 12.55 15.55
    endloop
  endfacet
  facet normal 1 0 0
    outer loop
      vertex 11.75 13.75 25.3
      vertex 11.75 10.5 17.6
      vertex 11.75 11.9496 16.9996
    endloop
  endfacet
  facet normal 1 -0 0
    outer loop
      vertex 11.75 7.25 25.3
      vertex 11.75 10.5 17.6
      vertex 11.75 13.75 25.3
    endloop
  endfacet
  facet normal 1 0 0
    outer loop
      vertex 11.75 9.05043 16.9996
      vertex 11.75 7.25 25.3
      vertex 11.75 8.45 15.55
    endloop
  endfacet
  facet normal 1 0 0
    outer loop
      vertex 11.75 10.5 17.6
      vertex 11.75 7.25 25.3
      vertex 11.75 9.05043 16.9996
    endloop
  endfacet
  facet normal 1 -0 0
    outer loop
      vertex 11.75 11.9496 14.1004
      vertex 11.75 13.75 5.8
      vertex 11.75 12.55 15.55
    endloop
  endfacet
  facet normal 1 -0 0
    outer loop
      vertex 11.75 10.5 13.5
      vertex 11.75 13.75 5.8
      vertex 11.75 11.9496 14.1004
    endloop
  endfacet
  facet normal 1 0 0
    outer loop
      vertex 11.75 7.25 5.8
      vertex 11.75 10.5 13.5
      vertex 11.75 9.05043 14.1004
    endloop
  endfacet
  facet normal 1 0 0
    outer loop
      vertex 11.75 10.5 13.5
      vertex 11.75 7.25 5.8
      vertex 11.75 13.75 5.8
    endloop
  endfacet
  facet normal 1 0 0
    outer loop
      vertex 11.75 8.45 15.55
      vertex 11.75 7.25 5.8
      vertex 11.75 9.05043 14.1004
    endloop
  endfacet
  facet normal 1 0 0
    outer loop
      vertex 11.75 7.25 5.8
      vertex 11.75 8.45 15.55
      vertex 11.75 7.25 25.3
    endloop
  endfacet
  facet normal 1 0 0
    outer loop
      vertex 11.75 -4.025 0
      vertex 11.75 -8.45 15.55
      vertex 11.75 -7.25 5.8
    endloop
  endfacet
  facet normal 1 0 0
    outer loop
      vertex 11.75 -7.25 25.3
      vertex 11.75 -9.05043 16.9996
      vertex 11.75 -8.45 15.55
    endloop
  endfacet
  facet normal 1 0 0
    outer loop
      vertex 11.75 -7.25 25.3
      vertex 11.75 -10.5 17.6
      vertex 11.75 -9.05043 16.9996
    endloop
  endfacet
  facet normal 1 -0 0
    outer loop
      vertex 11.75 -13.75 25.3
      vertex 11.75 -10.5 17.6
      vertex 11.75 -7.25 25.3
    endloop
  endfacet
  facet normal 1 0 0
    outer loop
      vertex 11.75 -11.9496 16.9996
      vertex 11.75 -13.75 25.3
      vertex 11.75 -12.55 15.55
    endloop
  endfacet
  facet normal 1 0 0
    outer loop
      vertex 11.75 -10.5 17.6
      vertex 11.75 -13.75 25.3
      vertex 11.75 -11.9496 16.9996
    endloop
  endfacet
  facet normal 1 0 0
    outer loop
      vertex 11.75 -7.25 25.3
      vertex 11.75 -4.025 35
      vertex 11.75 -7.25 35
    endloop
  endfacet
  facet normal 1 0 0
    outer loop
      vertex 11.75 -4.025 35
      vertex 11.75 -7.25 25.3
      vertex 11.75 -4.025 0
    endloop
  endfacet
  facet normal 1 -0 0
    outer loop
      vertex 11.75 -8.45 15.55
      vertex 11.75 -4.025 0
      vertex 11.75 -7.25 25.3
    endloop
  endfacet
  facet normal 1 0 0
    outer loop
      vertex 11.75 -4.025 0
      vertex 11.75 -7.25 5.8
      vertex 11.75 -7.25 0
    endloop
  endfacet
  facet normal 1 -0 0
    outer loop
      vertex 11.75 -9.05043 14.1004
      vertex 11.75 -7.25 5.8
      vertex 11.75 -8.45 15.55
    endloop
  endfacet
  facet normal 1 -0 0
    outer loop
      vertex 11.75 -10.5 13.5
      vertex 11.75 -7.25 5.8
      vertex 11.75 -9.05043 14.1004
    endloop
  endfacet
  facet normal 1 0 0
    outer loop
      vertex 11.75 -13.75 5.8
      vertex 11.75 -10.5 13.5
      vertex 11.75 -11.9496 14.1004
    endloop
  endfacet
  facet normal 1 0 0
    outer loop
      vertex 11.75 -10.5 13.5
      vertex 11.75 -13.75 5.8
      vertex 11.75 -7.25 5.8
    endloop
  endfacet
  facet normal 1 0 0
    outer loop
      vertex 11.75 -12.55 15.55
      vertex 11.75 -13.75 5.8
      vertex 11.75 -11.9496 14.1004
    endloop
  endfacet
  facet normal 1 0 0
    outer loop
      vertex 11.75 -13.75 5.8
      vertex 11.75 -12.55 15.55
      vertex 11.75 -13.75 25.3
    endloop
  endfacet
  facet normal 0 -1 0
    outer loop
      vertex 0 -7.25 35
      vertex 5.75 -7.25 25.3
      vertex 11.75 -7.25 35
    endloop
  endfacet
  facet normal 0 -1 0
    outer loop
      vertex 0 -7.25 35
      vertex 1.75 -7.25 18.9576
      vertex 5.75 -7.25 25.3
    endloop
  endfacet
  facet normal 0 -1 0
    outer loop
      vertex 0 -7.25 35
      vertex 1.75 -7.25 18.625
      vertex 1.75 -7.25 18.9576
    endloop
  endfacet
  facet normal 0 -1 0
    outer loop
      vertex 0 -7.25 35
      vertex 1.75 -7.25 17.6272
      vertex 1.75 -7.25 18.625
    endloop
  endfacet
  facet normal 0 -1 0
    outer loop
      vertex 0 -7.25 0
      vertex 1.75 -7.25 17.6272
      vertex 0 -7.25 35
    endloop
  endfacet
  facet normal 0 -1 0
    outer loop
      vertex 1.75 -7.25 12.1424
      vertex 5.75 -7.25 5.8
      vertex 4.75 -7.25 12.1424
    endloop
  endfacet
  facet normal 0 -1 -0
    outer loop
      vertex 1.75 -7.25 17.6272
      vertex 0 -7.25 0
      vertex 1.75 -7.25 12.1424
    endloop
  endfacet
  facet normal 0 -1 0
    outer loop
      vertex 0 -7.25 0
      vertex 5.75 -7.25 5.8
      vertex 1.75 -7.25 12.1424
    endloop
  endfacet
  facet normal 0 -1 0
    outer loop
      vertex 11.75 -7.25 0
      vertex 5.75 -7.25 5.8
      vertex 0 -7.25 0
    endloop
  endfacet
  facet normal 0 -1 0
    outer loop
      vertex 5.75 -7.25 5.8
      vertex 11.75 -7.25 0
      vertex 11.75 -7.25 5.8
    endloop
  endfacet
  facet normal 0 -1 -0
    outer loop
      vertex 11.75 -7.25 35
      vertex 5.75 -7.25 25.3
      vertex 11.75 -7.25 25.3
    endloop
  endfacet
  facet normal 0 -1 0
    outer loop
      vertex 4.75 -7.25 18.9576
      vertex 5.75 -7.25 25.3
      vertex 1.75 -7.25 18.9576
    endloop
  endfacet
  facet normal 0 -1 0
    outer loop
      vertex 4.75 -7.25 13.4728
      vertex 5.75 -7.25 25.3
      vertex 4.75 -7.25 18.9576
    endloop
  endfacet
  facet normal 0 -1 0
    outer loop
      vertex 5.75 -7.25 5.8
      vertex 4.75 -7.25 13.4728
      vertex 4.75 -7.25 12.475
    endloop
  endfacet
  facet normal 0 -1 0
    outer loop
      vertex 5.75 -7.25 5.8
      vertex 4.75 -7.25 12.475
      vertex 4.75 -7.25 12.1424
    endloop
  endfacet
  facet normal 0 -1 0
    outer loop
      vertex 4.75 -7.25 13.4728
      vertex 5.75 -7.25 5.8
      vertex 5.75 -7.25 25.3
    endloop
  endfacet
  facet normal 0 0 -1
    outer loop
      vertex 5.75 -13.75 5.8
      vertex 11.75 -7.25 5.8
      vertex 11.75 -13.75 5.8
    endloop
  endfacet
  facet normal -0 0 -1
    outer loop
      vertex 11.75 -7.25 5.8
      vertex 5.75 -13.75 5.8
      vertex 5.75 -7.25 5.8
    endloop
  endfacet
  facet normal 0 -1 0
    outer loop
      vertex 5.75 -13.75 5.8
      vertex 11.75 -13.75 25.3
      vertex 5.75 -13.75 25.3
    endloop
  endfacet
  facet normal 0 -1 -0
    outer loop
      vertex 11.75 -13.75 25.3
      vertex 5.75 -13.75 5.8
      vertex 11.75 -13.75 5.8
    endloop
  endfacet
  facet normal -0 0.382683 0.92388
    outer loop
      vertex 5.75 -10.5 13.5
      vertex 11.75 -11.9496 14.1004
      vertex 11.75 -10.5 13.5
    endloop
  endfacet
  facet normal 0 0.382683 0.92388
    outer loop
      vertex 11.75 -11.9496 14.1004
      vertex 5.75 -10.5 13.5
      vertex 5.75 -11.9496 14.1004
    endloop
  endfacet
  facet normal 0 -0.382683 0.92388
    outer loop
      vertex 5.75 -9.05043 14.1004
      vertex 11.75 -10.5 13.5
      vertex 11.75 -9.05043 14.1004
    endloop
  endfacet
  facet normal 0 -0.382683 0.92388
    outer loop
      vertex 11.75 -10.5 13.5
      vertex 5.75 -9.05043 14.1004
      vertex 5.75 -10.5 13.5
    endloop
  endfacet
  facet normal 0 0.382682 -0.92388
    outer loop
      vertex 5.75 -11.9496 16.9996
      vertex 11.75 -10.5 17.6
      vertex 11.75 -11.9496 16.9996
    endloop
  endfacet
  facet normal 0 0.382682 -0.92388
    outer loop
      vertex 11.75 -10.5 17.6
      vertex 5.75 -11.9496 16.9996
      vertex 5.75 -10.5 17.6
    endloop
  endfacet
  facet normal 0 -0.92388 -0.382683
    outer loop
      vertex 5.75 -8.45 15.55
      vertex 11.75 -9.05043 16.9996
      vertex 5.75 -9.05043 16.9996
    endloop
  endfacet
  facet normal 0 -0.92388 -0.382683
    outer loop
      vertex 11.75 -9.05043 16.9996
      vertex 5.75 -8.45 15.55
      vertex 11.75 -8.45 15.55
    endloop
  endfacet
  facet normal 0 -0.92388 0.382683
    outer loop
      vertex 5.75 -9.05043 14.1004
      vertex 11.75 -8.45 15.55
      vertex 5.75 -8.45 15.55
    endloop
  endfacet
  facet normal 0 -0.92388 0.382683
    outer loop
      vertex 11.75 -8.45 15.55
      vertex 5.75 -9.05043 14.1004
      vertex 11.75 -9.05043 14.1004
    endloop
  endfacet
  facet normal 0 -0.382683 -0.92388
    outer loop
      vertex 5.75 -10.5 17.6
      vertex 11.75 -9.05043 16.9996
      vertex 11.75 -10.5 17.6
    endloop
  endfacet
  facet normal -0 -0.382683 -0.92388
    outer loop
      vertex 11.75 -9.05043 16.9996
      vertex 5.75 -10.5 17.6
      vertex 5.75 -9.05043 16.9996
    endloop
  endfacet
  facet normal 0 0.92388 -0.382683
    outer loop
      vertex 11.75 -12.55 15.55
      vertex 5.75 -11.9496 16.9996
      vertex 11.75 -11.9496 16.9996
    endloop
  endfacet
  facet normal 0 0.92388 -0.382683
    outer loop
      vertex 5.75 -11.9496 16.9996
      vertex 11.75 -12.55 15.55
      vertex 5.75 -12.55 15.55
    endloop
  endfacet
  facet normal 0 0.92388 0.382683
    outer loop
      vertex 11.75 -11.9496 14.1004
      vertex 5.75 -12.55 15.55
      vertex 11.75 -12.55 15.55
    endloop
  endfacet
  facet normal 0 0.92388 0.382683
    outer loop
      vertex 5.75 -12.55 15.55
      vertex 11.75 -11.9496 14.1004
      vertex 5.75 -11.9496 14.1004
    endloop
  endfacet
  facet normal -1 0 0
    outer loop
      vertex 5.75 13.75 5.8
      vertex 5.75 12.55 15.55
      vertex 5.75 13.75 25.3
    endloop
  endfacet
  facet normal -1 0 0
    outer loop
      vertex 5.75 13.75 5.8
      vertex 5.75 11.9496 14.1004
      vertex 5.75 12.55 15.55
    endloop
  endfacet
  facet normal -1 0 0
    outer loop
      vertex 5.75 13.75 5.8
      vertex 5.75 10.5 13.5
      vertex 5.75 11.9496 14.1004
    endloop
  endfacet
  facet normal -1 0 0
    outer loop
      vertex 5.75 7.25 5.8
      vertex 5.75 10.5 13.5
      vertex 5.75 13.75 5.8
    endloop
  endfacet
  facet normal -1 -0 0
    outer loop
      vertex 5.75 9.05043 14.1004
      vertex 5.75 7.25 5.8
      vertex 5.75 8.45 15.55
    endloop
  endfacet
  facet normal -1 -0 0
    outer loop
      vertex 5.75 10.5 13.5
      vertex 5.75 7.25 5.8
      vertex 5.75 9.05043 14.1004
    endloop
  endfacet
  facet normal -1 0 0
    outer loop
      vertex 5.75 11.9496 16.9996
      vertex 5.75 13.75 25.3
      vertex 5.75 12.55 15.55
    endloop
  endfacet
  facet normal -1 0 0
    outer loop
      vertex 5.75 10.5 17.6
      vertex 5.75 13.75 25.3
      vertex 5.75 11.9496 16.9996
    endloop
  endfacet
  facet normal -1 0 0
    outer loop
      vertex 5.75 7.25 25.3
      vertex 5.75 10.5 17.6
      vertex 5.75 9.05043 16.9996
    endloop
  endfacet
  facet normal -1 0 0
    outer loop
      vertex 5.75 10.5 17.6
      vertex 5.75 7.25 25.3
      vertex 5.75 13.75 25.3
    endloop
  endfacet
  facet normal -1 0 0
    outer loop
      vertex 5.75 8.45 15.55
      vertex 5.75 7.25 25.3
      vertex 5.75 9.05043 16.9996
    endloop
  endfacet
  facet normal -1 0 0
    outer loop
      vertex 5.75 7.25 25.3
      vertex 5.75 8.45 15.55
      vertex 5.75 7.25 5.8
    endloop
  endfacet
  facet normal -0 0 1
    outer loop
      vertex 5.75 13.75 25.3
      vertex 11.75 7.25 25.3
      vertex 11.75 13.75 25.3
    endloop
  endfacet
  facet normal 0 0 1
    outer loop
      vertex 11.75 7.25 25.3
      vertex 5.75 13.75 25.3
      vertex 5.75 7.25 25.3
    endloop
  endfacet
  facet normal 0 1 -0
    outer loop
      vertex 11.75 13.75 5.8
      vertex 5.75 13.75 25.3
      vertex 11.75 13.75 25.3
    endloop
  endfacet
  facet normal 0 1 0
    outer loop
      vertex 5.75 13.75 25.3
      vertex 11.75 13.75 5.8
      vertex 5.75 13.75 5.8
    endloop
  endfacet
  facet normal 0 0 -1
    outer loop
      vertex 5.75 7.25 5.8
      vertex 11.75 13.75 5.8
      vertex 11.75 7.25 5.8
    endloop
  endfacet
  facet normal -0 0 -1
    outer loop
      vertex 11.75 13.75 5.8
      vertex 5.75 7.25 5.8
      vertex 5.75 13.75 5.8
    endloop
  endfacet
  facet normal 0 1 0
    outer loop
      vertex 11.75 7.25 5.8
      vertex 11.75 7.25 0
      vertex 5.75 7.25 5.8
    endloop
  endfacet
  facet normal 0 1 0
    outer loop
      vertex 5.75 7.25 25.3
      vertex 4.75 7.25 13.4728
      vertex 4.75 7.25 18.9576
    endloop
  endfacet
  facet normal 0 1 -0
    outer loop
      vertex 5.75 7.25 5.8
      vertex 4.75 7.25 13.4728
      vertex 5.75 7.25 25.3
    endloop
  endfacet
  facet normal 0 1 0
    outer loop
      vertex 4.75 7.25 13.4728
      vertex 5.75 7.25 5.8
      vertex 4.75 7.25 12.475
    endloop
  endfacet
  facet normal 0 1 0
    outer loop
      vertex 4.75 7.25 12.1424
      vertex 5.75 7.25 5.8
      vertex 1.75 7.25 12.1424
    endloop
  endfacet
  facet normal 0 1 0
    outer loop
      vertex 4.75 7.25 12.475
      vertex 5.75 7.25 5.8
      vertex 4.75 7.25 12.1424
    endloop
  endfacet
  facet normal 0 1 0
    outer loop
      vertex 5.75 7.25 25.3
      vertex 11.75 7.25 35
      vertex 11.75 7.25 25.3
    endloop
  endfacet
  facet normal 0 1 0
    outer loop
      vertex 11.75 7.25 35
      vertex 5.75 7.25 25.3
      vertex 0 7.25 35
    endloop
  endfacet
  facet normal 0 1 0
    outer loop
      vertex 1.75 7.25 18.9576
      vertex 5.75 7.25 25.3
      vertex 4.75 7.25 18.9576
    endloop
  endfacet
  facet normal 0 1 0
    outer loop
      vertex 5.75 7.25 25.3
      vertex 1.75 7.25 18.9576
      vertex 0 7.25 35
    endloop
  endfacet
  facet normal 0 1 -0
    outer loop
      vertex 1.75 7.25 18.625
      vertex 0 7.25 35
      vertex 1.75 7.25 18.9576
    endloop
  endfacet
  facet normal 0 1 0
    outer loop
      vertex 1.75 7.25 17.6272
      vertex 0 7.25 35
      vertex 1.75 7.25 18.625
    endloop
  endfacet
  facet normal 0 1 0
    outer loop
      vertex 0 7.25 0
      vertex 1.75 7.25 17.6272
      vertex 1.75 7.25 12.1424
    endloop
  endfacet
  facet normal 0 1 0
    outer loop
      vertex 1.75 7.25 17.6272
      vertex 0 7.25 0
      vertex 0 7.25 35
    endloop
  endfacet
  facet normal 0 1 0
    outer loop
      vertex 5.75 7.25 5.8
      vertex 0 7.25 0
      vertex 1.75 7.25 12.1424
    endloop
  endfacet
  facet normal 0 1 0
    outer loop
      vertex 0 7.25 0
      vertex 5.75 7.25 5.8
      vertex 11.75 7.25 0
    endloop
  endfacet
  facet normal -0 0.382683 0.92388
    outer loop
      vertex 5.75 10.5 13.5
      vertex 11.75 9.05043 14.1004
      vertex 11.75 10.5 13.5
    endloop
  endfacet
  facet normal 0 0.382683 0.92388
    outer loop
      vertex 11.75 9.05043 14.1004
      vertex 5.75 10.5 13.5
      vertex 5.75 9.05043 14.1004
    endloop
  endfacet
  facet normal 0 -0.382683 0.92388
    outer loop
      vertex 5.75 11.9496 14.1004
      vertex 11.75 10.5 13.5
      vertex 11.75 11.9496 14.1004
    endloop
  endfacet
  facet normal 0 -0.382683 0.92388
    outer loop
      vertex 11.75 10.5 13.5
      vertex 5.75 11.9496 14.1004
      vertex 5.75 10.5 13.5
    endloop
  endfacet
  facet normal 0 0.382682 -0.92388
    outer loop
      vertex 5.75 9.05043 16.9996
      vertex 11.75 10.5 17.6
      vertex 11.75 9.05043 16.9996
    endloop
  endfacet
  facet normal 0 0.382682 -0.92388
    outer loop
      vertex 11.75 10.5 17.6
      vertex 5.75 9.05043 16.9996
      vertex 5.75 10.5 17.6
    endloop
  endfacet
  facet normal 0 -0.92388 -0.382683
    outer loop
      vertex 5.75 12.55 15.55
      vertex 11.75 11.9496 16.9996
      vertex 5.75 11.9496 16.9996
    endloop
  endfacet
  facet normal 0 -0.92388 -0.382683
    outer loop
      vertex 11.75 11.9496 16.9996
      vertex 5.75 12.55 15.55
      vertex 11.75 12.55 15.55
    endloop
  endfacet
  facet normal 0 -0.92388 0.382683
    outer loop
      vertex 5.75 11.9496 14.1004
      vertex 11.75 12.55 15.55
      vertex 5.75 12.55 15.55
    endloop
  endfacet
  facet normal 0 -0.92388 0.382683
    outer loop
      vertex 11.75 12.55 15.55
      vertex 5.75 11.9496 14.1004
      vertex 11.75 11.9496 14.1004
    endloop
  endfacet
  facet normal 0 -0.382683 -0.92388
    outer loop
      vertex 5.75 10.5 17.6
      vertex 11.75 11.9496 16.9996
      vertex 11.75 10.5 17.6
    endloop
  endfacet
  facet normal -0 -0.382683 -0.92388
    outer loop
      vertex 11.75 11.9496 16.9996
      vertex 5.75 10.5 17.6
      vertex 5.75 11.9496 16.9996
    endloop
  endfacet
  facet normal 0 0.92388 -0.382683
    outer loop
      vertex 11.75 8.45 15.55
      vertex 5.75 9.05043 16.9996
      vertex 11.75 9.05043 16.9996
    endloop
  endfacet
  facet normal 0 0.92388 -0.382683
    outer loop
      vertex 5.75 9.05043 16.9996
      vertex 11.75 8.45 15.55
      vertex 5.75 8.45 15.55
    endloop
  endfacet
  facet normal 0 0.92388 0.382683
    outer loop
      vertex 11.75 9.05043 14.1004
      vertex 5.75 8.45 15.55
      vertex 11.75 8.45 15.55
    endloop
  endfacet
  facet normal 0 0.92388 0.382683
    outer loop
      vertex 5.75 8.45 15.55
      vertex 11.75 9.05043 14.1004
      vertex 5.75 9.05043 14.1004
    endloop
  endfacet
  facet normal -0.996917 0.0784596 0
    outer loop
      vertex -7.25 0 3
      vertex -7.16074 1.13415 35
      vertex -7.16074 1.13415 2.63149
    endloop
  endfacet
  facet normal -0.996917 0.0784596 0
    outer loop
      vertex -7.16074 1.13415 35
      vertex -7.25 0 3
      vertex -7.25 0 35
    endloop
  endfacet
  facet normal -0.760406 -0.649448 0
    outer loop
      vertex -5.12652 -5.12652 0
      vertex -5.86537 -4.26144 35
      vertex -5.86537 -4.26144 0
    endloop
  endfacet
  facet normal -0.760406 -0.649448 0
    outer loop
      vertex -5.86537 -4.26144 35
      vertex -5.12652 -5.12652 0
      vertex -5.12652 -5.12652 35
    endloop
  endfacet
  facet normal -0.649448 0.760406 0
    outer loop
      vertex -4.26144 5.86537 0
      vertex -5.12652 5.12652 35
      vertex -4.26144 5.86537 35
    endloop
  endfacet
  facet normal -0.649448 0.760406 0
    outer loop
      vertex -5.12652 5.12652 35
      vertex -4.26144 5.86537 0
      vertex -5.12652 5.12652 0
    endloop
  endfacet
  facet normal -0.233445 0.97237 0
    outer loop
      vertex -1.13415 7.16074 0
      vertex -2.24037 6.89516 35
      vertex -1.13415 7.16074 35
    endloop
  endfacet
  facet normal -0.233445 0.97237 0
    outer loop
      vertex -2.24037 6.89516 35
      vertex -1.13415 7.16074 0
      vertex -2.24037 6.89516 0
    endloop
  endfacet
  facet normal 0 0 -1
    outer loop
      vertex 11.75 -7.25 0
      vertex 7.025 -6.025 0
      vertex 11.75 -4.025 0
    endloop
  endfacet
  facet normal 0 0 -1
    outer loop
      vertex 0 -7.25 0
      vertex 7.025 -6.025 0
      vertex 11.75 -7.25 0
    endloop
  endfacet
  facet normal 0 0 -1
    outer loop
      vertex 3.475 -6.025 0
      vertex 2.475 -2.85317 0
      vertex 3.475 6.025 0
    endloop
  endfacet
  facet normal -0 0 -1
    outer loop
      vertex 7.025 -6.025 0
      vertex 0 -7.25 0
      vertex 3.475 -6.025 0
    endloop
  endfacet
  facet normal 0 0 -1
    outer loop
      vertex 0 -7.25 0
      vertex 2.475 -2.85317 0
      vertex 3.475 -6.025 0
    endloop
  endfacet
  facet normal 0 0 -1
    outer loop
      vertex -1.13415 -7.16074 0
      vertex 2.475 -2.85317 0
      vertex 0 -7.25 0
    endloop
  endfacet
  facet normal 0 0 -1
    outer loop
      vertex -2.24037 -6.89516 0
      vertex 2.475 -2.85317 0
      vertex -1.13415 -7.16074 0
    endloop
  endfacet
  facet normal 0 0 -1
    outer loop
      vertex -3.29143 -6.4598 0
      vertex 2.475 -2.85317 0
      vertex -2.24037 -6.89516 0
    endloop
  endfacet
  facet normal 0 0 -1
    outer loop
      vertex -4.26144 -5.86537 0
      vertex 2.475 -2.85317 0
      vertex -3.29143 -6.4598 0
    endloop
  endfacet
  facet normal 0 0 -1
    outer loop
      vertex -5.12652 -5.12652 0
      vertex 2.475 -2.85317 0
      vertex -4.26144 -5.86537 0
    endloop
  endfacet
  facet normal 0 0 -1
    outer loop
      vertex -5.86537 -4.26144 0
      vertex 2.475 -2.85317 0
      vertex -5.12652 -5.12652 0
    endloop
  endfacet
  facet normal 0 0 -1
    outer loop
      vertex -6.4598 -3.29143 0
      vertex 2.475 -2.85317 0
      vertex -5.86537 -4.26144 0
    endloop
  endfacet
  facet normal -0 0 -1
    outer loop
      vertex 2.475 -2.85317 0
      vertex -6.4598 -3.29143 0
      vertex -6.64133 -2.85317 0
    endloop
  endfacet
  facet normal -0 0 -1
    outer loop
      vertex 11.75 -4.025 0
      vertex 7.025 -6.025 0
      vertex 7.025 -4.025 0
    endloop
  endfacet
  facet normal 0 0 -1
    outer loop
      vertex 7.025 6.025 0
      vertex 11.75 4.025 0
      vertex 7.025 4.025 0
    endloop
  endfacet
  facet normal 0 0 -1
    outer loop
      vertex 11.75 4.025 0
      vertex 7.025 6.025 0
      vertex 11.75 7.25 0
    endloop
  endfacet
  facet normal 0 0 -1
    outer loop
      vertex 0 7.25 0
      vertex 7.025 6.025 0
      vertex 3.475 6.025 0
    endloop
  endfacet
  facet normal 0 0 -1
    outer loop
      vertex 2.475 2.85317 0
      vertex 3.475 6.025 0
      vertex 2.475 -2.85317 0
    endloop
  endfacet
  facet normal 0 0 -1
    outer loop
      vertex 7.025 6.025 0
      vertex 0 7.25 0
      vertex 11.75 7.25 0
    endloop
  endfacet
  facet normal 0 0 -1
    outer loop
      vertex 2.475 2.85317 0
      vertex 0 7.25 0
      vertex 3.475 6.025 0
    endloop
  endfacet
  facet normal 0 0 -1
    outer loop
      vertex 2.475 2.85317 0
      vertex -1.13415 7.16074 0
      vertex 0 7.25 0
    endloop
  endfacet
  facet normal 0 0 -1
    outer loop
      vertex 2.475 2.85317 0
      vertex -2.24037 6.89516 0
      vertex -1.13415 7.16074 0
    endloop
  endfacet
  facet normal 0 0 -1
    outer loop
      vertex 2.475 2.85317 0
      vertex -3.29143 6.4598 0
      vertex -2.24037 6.89516 0
    endloop
  endfacet
  facet normal 0 0 -1
    outer loop
      vertex 2.475 2.85317 0
      vertex -4.26144 5.86537 0
      vertex -3.29143 6.4598 0
    endloop
  endfacet
  facet normal 0 0 -1
    outer loop
      vertex 2.475 2.85317 0
      vertex -5.12652 5.12652 0
      vertex -4.26144 5.86537 0
    endloop
  endfacet
  facet normal 0 0 -1
    outer loop
      vertex 2.475 2.85317 0
      vertex -5.86537 4.26144 0
      vertex -5.12652 5.12652 0
    endloop
  endfacet
  facet normal 0 0 -1
    outer loop
      vertex 2.475 2.85317 0
      vertex -6.4598 3.29143 0
      vertex -5.86537 4.26144 0
    endloop
  endfacet
  facet normal 0 -0 -1
    outer loop
      vertex -6.4598 3.29143 0
      vertex 2.475 2.85317 0
      vertex -6.64133 2.85317 0
    endloop
  endfacet
  facet normal -0.923879 0.382684 0
    outer loop
      vertex -6.64133 2.85317 0.927051
      vertex -6.4598 3.29143 0
      vertex -6.64133 2.85317 0
    endloop
  endfacet
  facet normal -0.923879 0.382684 0
    outer loop
      vertex -6.4598 3.29143 0
      vertex -6.64133 2.85317 0.927051
      vertex -6.4598 3.29143 35
    endloop
  endfacet
  facet normal -0.923879 0.382684 -1.02503e-09
    outer loop
      vertex -6.89516 2.24037 1.77049
      vertex -6.4598 3.29143 35
      vertex -6.64133 2.85317 0.927051
    endloop
  endfacet
  facet normal -0.923879 0.382684 0
    outer loop
      vertex -6.4598 3.29143 35
      vertex -6.89516 2.24037 1.77049
      vertex -6.89516 2.24037 35
    endloop
  endfacet
  facet normal -0.97237 0.233445 0
    outer loop
      vertex -7.00968 1.76336 2.42705
      vertex -6.89516 2.24037 35
      vertex -6.89516 2.24037 1.77049
    endloop
  endfacet
  facet normal -0.97237 0.233446 -1.98274e-08
    outer loop
      vertex -7.04004 1.63692 2.46813
      vertex -6.89516 2.24037 35
      vertex -7.00968 1.76336 2.42705
    endloop
  endfacet
  facet normal -0.97237 0.233445 9.09037e-09
    outer loop
      vertex -7.16074 1.13415 2.63149
      vertex -6.89516 2.24037 35
      vertex -7.04004 1.63692 2.46813
    endloop
  endfacet
  facet normal -0.97237 0.233445 0
    outer loop
      vertex -6.89516 2.24037 35
      vertex -7.16074 1.13415 2.63149
      vertex -7.16074 1.13415 35
    endloop
  endfacet
  facet normal 0 0 1
    outer loop
      vertex 11.75 7.25 35
      vertex 7.025 6.025 35
      vertex 11.75 4.025 35
    endloop
  endfacet
  facet normal -0 0 1
    outer loop
      vertex 0 7.25 35
      vertex 7.025 6.025 35
      vertex 11.75 7.25 35
    endloop
  endfacet
  facet normal 0 0 1
    outer loop
      vertex 3.475 6.025 35
      vertex 2.76875 4.79562 35
      vertex 3.475 4.203 35
    endloop
  endfacet
  facet normal 0 0 1
    outer loop
      vertex 3.475 6.025 35
      vertex 0.961576 5.45337 35
      vertex 2.76875 4.79562 35
    endloop
  endfacet
  facet normal 0 0 1
    outer loop
      vertex 7.025 6.025 35
      vertex 0 7.25 35
      vertex 3.475 6.025 35
    endloop
  endfacet
  facet normal 0 0 1
    outer loop
      vertex 0 7.25 35
      vertex 0.961576 5.45337 35
      vertex 3.475 6.025 35
    endloop
  endfacet
  facet normal 0 0 1
    outer loop
      vertex 0 7.25 35
      vertex -0.961576 5.45337 35
      vertex 0.961576 5.45337 35
    endloop
  endfacet
  facet normal -0 0 1
    outer loop
      vertex -1.13415 7.16074 35
      vertex -0.961576 5.45337 35
      vertex 0 7.25 35
    endloop
  endfacet
  facet normal -0 0 1
    outer loop
      vertex -2.24037 6.89516 35
      vertex -0.961576 5.45337 35
      vertex -1.13415 7.16074 35
    endloop
  endfacet
  facet normal 0 0 1
    outer loop
      vertex -2.24037 6.89516 35
      vertex -2.76875 4.79562 35
      vertex -0.961576 5.45337 35
    endloop
  endfacet
  facet normal -0 0 1
    outer loop
      vertex -3.29143 6.4598 35
      vertex -2.76875 4.79562 35
      vertex -2.24037 6.89516 35
    endloop
  endfacet
  facet normal -0 0 1
    outer loop
      vertex -4.26144 5.86537 35
      vertex -2.76875 4.79562 35
      vertex -3.29143 6.4598 35
    endloop
  endfacet
  facet normal 0 0 1
    outer loop
      vertex -2.76875 4.79562 35
      vertex -4.26144 5.86537 35
      vertex -4.24197 3.55944 35
    endloop
  endfacet
  facet normal -0 0 1
    outer loop
      vertex -5.12652 5.12652 35
      vertex -4.24197 3.55944 35
      vertex -4.26144 5.86537 35
    endloop
  endfacet
  facet normal -0 0 1
    outer loop
      vertex -5.86537 4.26144 35
      vertex -4.24197 3.55944 35
      vertex -5.12652 5.12652 35
    endloop
  endfacet
  facet normal 0 0 1
    outer loop
      vertex -6.4598 3.29143 35
      vertex -4.24197 3.55944 35
      vertex -5.86537 4.26144 35
    endloop
  endfacet
  facet normal 0 0 1
    outer loop
      vertex -4.24197 3.55944 35
      vertex -6.4598 3.29143 35
      vertex -5.20355 1.89394 35
    endloop
  endfacet
  facet normal 0 0 1
    outer loop
      vertex 11.75 4.025 35
      vertex 7.025 6.025 35
      vertex 7.025 4.025 35
    endloop
  endfacet
  facet normal 0 0 1
    outer loop
      vertex 3.475 -4.203 35
      vertex 2.76875 -4.79562 35
      vertex 3.475 -6.025 35
    endloop
  endfacet
  facet normal 0 0 1
    outer loop
      vertex 7.025 -6.025 35
      vertex 11.75 -4.025 35
      vertex 7.025 -4.025 35
    endloop
  endfacet
  facet normal 0 0 1
    outer loop
      vertex 11.75 -4.025 35
      vertex 7.025 -6.025 35
      vertex 11.75 -7.25 35
    endloop
  endfacet
  facet normal 0 0 1
    outer loop
      vertex 0 -7.25 35
      vertex 7.025 -6.025 35
      vertex 3.475 -6.025 35
    endloop
  endfacet
  facet normal -0 0 1
    outer loop
      vertex 0.961576 -5.45337 35
      vertex 3.475 -6.025 35
      vertex 2.76875 -4.79562 35
    endloop
  endfacet
  facet normal 0 0 1
    outer loop
      vertex 7.025 -6.025 35
      vertex 0 -7.25 35
      vertex 11.75 -7.25 35
    endloop
  endfacet
  facet normal 0 0 1
    outer loop
      vertex 0.961576 -5.45337 35
      vertex 0 -7.25 35
      vertex 3.475 -6.025 35
    endloop
  endfacet
  facet normal -0 0 1
    outer loop
      vertex -0.961576 -5.45337 35
      vertex 0 -7.25 35
      vertex 0.961576 -5.45337 35
    endloop
  endfacet
  facet normal 0 0 1
    outer loop
      vertex -0.961576 -5.45337 35
      vertex -1.13415 -7.16074 35
      vertex 0 -7.25 35
    endloop
  endfacet
  facet normal 0 0 1
    outer loop
      vertex -0.961576 -5.45337 35
      vertex -2.24037 -6.89516 35
      vertex -1.13415 -7.16074 35
    endloop
  endfacet
  facet normal 0 0 1
    outer loop
      vertex -2.76875 -4.79562 35
      vertex -2.24037 -6.89516 35
      vertex -0.961576 -5.45337 35
    endloop
  endfacet
  facet normal 0 0 1
    outer loop
      vertex -2.76875 -4.79562 35
      vertex -3.29143 -6.4598 35
      vertex -2.24037 -6.89516 35
    endloop
  endfacet
  facet normal 0 0 1
    outer loop
      vertex -4.26144 -5.86537 35
      vertex -2.76875 -4.79562 35
      vertex -4.24197 -3.55944 35
    endloop
  endfacet
  facet normal 0 0 1
    outer loop
      vertex -2.76875 -4.79562 35
      vertex -4.26144 -5.86537 35
      vertex -3.29143 -6.4598 35
    endloop
  endfacet
  facet normal 0 0 1
    outer loop
      vertex -4.24197 -3.55944 35
      vertex -5.12652 -5.12652 35
      vertex -4.26144 -5.86537 35
    endloop
  endfacet
  facet normal -0 0 1
    outer loop
      vertex -6.4598 -3.29143 35
      vertex -4.24197 -3.55944 35
      vertex -5.20355 -1.89394 35
    endloop
  endfacet
  facet normal -0 0 1
    outer loop
      vertex -7.16074 -1.13415 35
      vertex -5.20355 -1.89394 35
      vertex -5.5375 0 35
    endloop
  endfacet
  facet normal 0 0 1
    outer loop
      vertex -4.24197 -3.55944 35
      vertex -5.86537 -4.26144 35
      vertex -5.12652 -5.12652 35
    endloop
  endfacet
  facet normal -0 0 1
    outer loop
      vertex -6.89516 2.24037 35
      vertex -5.20355 1.89394 35
      vertex -6.4598 3.29143 35
    endloop
  endfacet
  facet normal 0 0 1
    outer loop
      vertex -7.16074 1.13415 35
      vertex -5.20355 1.89394 35
      vertex -6.89516 2.24037 35
    endloop
  endfacet
  facet normal 0 0 1
    outer loop
      vertex -4.24197 -3.55944 35
      vertex -6.4598 -3.29143 35
      vertex -5.86537 -4.26144 35
    endloop
  endfacet
  facet normal 0 0 1
    outer loop
      vertex -5.20355 1.89394 35
      vertex -7.16074 1.13415 35
      vertex -5.5375 0 35
    endloop
  endfacet
  facet normal 0 0 1
    outer loop
      vertex -5.20355 -1.89394 35
      vertex -6.89516 -2.24037 35
      vertex -6.4598 -3.29143 35
    endloop
  endfacet
  facet normal 0 0 1
    outer loop
      vertex -7.25 0 35
      vertex -5.5375 0 35
      vertex -7.16074 1.13415 35
    endloop
  endfacet
  facet normal 0 0 1
    outer loop
      vertex -5.20355 -1.89394 35
      vertex -7.16074 -1.13415 35
      vertex -6.89516 -2.24037 35
    endloop
  endfacet
  facet normal 0 0 1
    outer loop
      vertex -5.5375 0 35
      vertex -7.25 0 35
      vertex -7.16074 -1.13415 35
    endloop
  endfacet
  facet normal -0.382684 0.923879 0
    outer loop
      vertex -2.24037 6.89516 0
      vertex -3.29143 6.4598 35
      vertex -2.24037 6.89516 35
    endloop
  endfacet
  facet normal -0.382684 0.923879 0
    outer loop
      vertex -3.29143 6.4598 35
      vertex -2.24037 6.89516 0
      vertex -3.29143 6.4598 0
    endloop
  endfacet
  facet normal -0.0784596 0.996917 0
    outer loop
      vertex 0 7.25 0
      vertex -1.13415 7.16074 35
      vertex 0 7.25 35
    endloop
  endfacet
  facet normal -0.0784596 0.996917 0
    outer loop
      vertex -1.13415 7.16074 35
      vertex 0 7.25 0
      vertex -1.13415 7.16074 0
    endloop
  endfacet
  facet normal -0.233445 -0.97237 0
    outer loop
      vertex -2.24037 -6.89516 0
      vertex -1.13415 -7.16074 35
      vertex -2.24037 -6.89516 35
    endloop
  endfacet
  facet normal -0.233445 -0.97237 -0
    outer loop
      vertex -1.13415 -7.16074 35
      vertex -2.24037 -6.89516 0
      vertex -1.13415 -7.16074 0
    endloop
  endfacet
  facet normal -0.923879 -0.382684 0
    outer loop
      vertex -6.64133 -2.85317 0
      vertex -6.4598 -3.29143 0
      vertex -6.64133 -2.85317 0.927051
    endloop
  endfacet
  facet normal -0.923879 -0.382684 -1.02503e-09
    outer loop
      vertex -6.4598 -3.29143 35
      vertex -6.89516 -2.24037 1.77049
      vertex -6.64133 -2.85317 0.927051
    endloop
  endfacet
  facet normal -0.923879 -0.382684 -0
    outer loop
      vertex -6.4598 -3.29143 35
      vertex -6.64133 -2.85317 0.927051
      vertex -6.4598 -3.29143 0
    endloop
  endfacet
  facet normal -0.923879 -0.382684 0
    outer loop
      vertex -6.89516 -2.24037 1.77049
      vertex -6.4598 -3.29143 35
      vertex -6.89516 -2.24037 35
    endloop
  endfacet
  facet normal -0.996917 -0.0784596 -0
    outer loop
      vertex -7.16074 -1.13415 35
      vertex -7.25 0 3
      vertex -7.16074 -1.13415 2.63149
    endloop
  endfacet
  facet normal -0.996917 -0.0784596 0
    outer loop
      vertex -7.25 0 3
      vertex -7.16074 -1.13415 35
      vertex -7.25 0 35
    endloop
  endfacet
  facet normal -0.85264 0.522499 0
    outer loop
      vertex -6.4598 3.29143 0
      vertex -5.86537 4.26144 35
      vertex -5.86537 4.26144 0
    endloop
  endfacet
  facet normal -0.85264 0.522499 0
    outer loop
      vertex -5.86537 4.26144 35
      vertex -6.4598 3.29143 0
      vertex -6.4598 3.29143 35
    endloop
  endfacet
  facet normal -0.760406 0.649448 0
    outer loop
      vertex -5.86537 4.26144 0
      vertex -5.12652 5.12652 35
      vertex -5.12652 5.12652 0
    endloop
  endfacet
  facet normal -0.760406 0.649448 0
    outer loop
      vertex -5.12652 5.12652 35
      vertex -5.86537 4.26144 0
      vertex -5.86537 4.26144 35
    endloop
  endfacet
  facet normal -0.522499 0.85264 0
    outer loop
      vertex -3.29143 6.4598 0
      vertex -4.26144 5.86537 35
      vertex -3.29143 6.4598 35
    endloop
  endfacet
  facet normal -0.522499 0.85264 0
    outer loop
      vertex -4.26144 5.86537 35
      vertex -3.29143 6.4598 0
      vertex -4.26144 5.86537 0
    endloop
  endfacet
  facet normal -0.649448 -0.760406 0
    outer loop
      vertex -5.12652 -5.12652 0
      vertex -4.26144 -5.86537 35
      vertex -5.12652 -5.12652 35
    endloop
  endfacet
  facet normal -0.649448 -0.760406 -0
    outer loop
      vertex -4.26144 -5.86537 35
      vertex -5.12652 -5.12652 0
      vertex -4.26144 -5.86537 0
    endloop
  endfacet
  facet normal -0.382684 -0.923879 0
    outer loop
      vertex -3.29143 -6.4598 0
      vertex -2.24037 -6.89516 35
      vertex -3.29143 -6.4598 35
    endloop
  endfacet
  facet normal -0.382684 -0.923879 -0
    outer loop
      vertex -2.24037 -6.89516 35
      vertex -3.29143 -6.4598 0
      vertex -2.24037 -6.89516 0
    endloop
  endfacet
  facet normal -0.0784596 -0.996917 0
    outer loop
      vertex -1.13415 -7.16074 0
      vertex 0 -7.25 35
      vertex -1.13415 -7.16074 35
    endloop
  endfacet
  facet normal -0.0784596 -0.996917 -0
    outer loop
      vertex 0 -7.25 35
      vertex -1.13415 -7.16074 0
      vertex 0 -7.25 0
    endloop
  endfacet
  facet normal -0.85264 -0.522499 0
    outer loop
      vertex -5.86537 -4.26144 0
      vertex -6.4598 -3.29143 35
      vertex -6.4598 -3.29143 0
    endloop
  endfacet
  facet normal -0.85264 -0.522499 0
    outer loop
      vertex -6.4598 -3.29143 35
      vertex -5.86537 -4.26144 0
      vertex -5.86537 -4.26144 35
    endloop
  endfacet
  facet normal -0.97237 -0.233445 9.09037e-09
    outer loop
      vertex -6.89516 -2.24037 35
      vertex -7.16074 -1.13415 2.63149
      vertex -7.04004 -1.63692 2.46813
    endloop
  endfacet
  facet normal -0.97237 -0.233446 -1.98274e-08
    outer loop
      vertex -6.89516 -2.24037 35
      vertex -7.04004 -1.63692 2.46813
      vertex -7.00968 -1.76336 2.42705
    endloop
  endfacet
  facet normal -0.97237 -0.233445 -0
    outer loop
      vertex -6.89516 -2.24037 35
      vertex -7.00968 -1.76336 2.42705
      vertex -6.89516 -2.24037 1.77049
    endloop
  endfacet
  facet normal -0.97237 -0.233445 0
    outer loop
      vertex -7.16074 -1.13415 2.63149
      vertex -6.89516 -2.24037 35
      vertex -7.16074 -1.13415 35
    endloop
  endfacet
  facet normal -0.522499 -0.85264 0
    outer loop
      vertex -4.26144 -5.86537 0
      vertex -3.29143 -6.4598 35
      vertex -4.26144 -5.86537 35
    endloop
  endfacet
  facet normal -0.522499 -0.85264 -0
    outer loop
      vertex -3.29143 -6.4598 35
      vertex -4.26144 -5.86537 0
      vertex -3.29143 -6.4598 0
    endloop
  endfacet
  facet normal 0.984808 -0.173648 0
    outer loop
      vertex -5.5375 0 35
      vertex -5.20355 1.89394 4
      vertex -5.20355 1.89394 35
    endloop
  endfacet
  facet normal 0.984808 -0.173648 0
    outer loop
      vertex -5.20355 1.89394 4
      vertex -5.5375 0 35
      vertex -5.5375 0 4
    endloop
  endfacet
  facet normal 0.984808 0.173648 0
    outer loop
      vertex -5.20355 -1.89394 35
      vertex -5.5375 0 4
      vertex -5.5375 0 35
    endloop
  endfacet
  facet normal 0.984808 0.173648 0
    outer loop
      vertex -5.5375 0 4
      vertex -5.20355 -1.89394 35
      vertex -5.20355 -1.89394 4
    endloop
  endfacet
  facet normal 0 -1 0
    outer loop
      vertex -0.961576 5.45337 4
      vertex 0.961576 5.45337 35
      vertex -0.961576 5.45337 35
    endloop
  endfacet
  facet normal 0 -1 -0
    outer loop
      vertex 0.961576 5.45337 35
      vertex -0.961576 5.45337 4
      vertex 0.961576 5.45337 4
    endloop
  endfacet
  facet normal -0.642788 -0.766044 0
    outer loop
      vertex 2.76875 4.79562 4
      vertex 3.475 4.203 35
      vertex 2.76875 4.79562 35
    endloop
  endfacet
  facet normal -0.642788 -0.766044 -0
    outer loop
      vertex 3.475 4.203 35
      vertex 2.76875 4.79562 4
      vertex 3.475 4.203 4
    endloop
  endfacet
  facet normal -0.34202 -0.939693 0
    outer loop
      vertex 0.961576 5.45337 4
      vertex 2.76875 4.79562 35
      vertex 0.961576 5.45337 35
    endloop
  endfacet
  facet normal -0.34202 -0.939693 -0
    outer loop
      vertex 2.76875 4.79562 35
      vertex 0.961576 5.45337 4
      vertex 2.76875 4.79562 4
    endloop
  endfacet
  facet normal 0.34202 -0.939693 0
    outer loop
      vertex -2.76875 4.79562 4
      vertex -0.961576 5.45337 35
      vertex -2.76875 4.79562 35
    endloop
  endfacet
  facet normal 0.34202 -0.939693 0
    outer loop
      vertex -0.961576 5.45337 35
      vertex -2.76875 4.79562 4
      vertex -0.961576 5.45337 4
    endloop
  endfacet
  facet normal 0.642787 -0.766045 0
    outer loop
      vertex -4.24197 3.55944 4
      vertex -2.76875 4.79562 35
      vertex -4.24197 3.55944 35
    endloop
  endfacet
  facet normal 0.642787 -0.766045 0
    outer loop
      vertex -2.76875 4.79562 35
      vertex -4.24197 3.55944 4
      vertex -2.76875 4.79562 4
    endloop
  endfacet
  facet normal 0.866025 -0.5 0
    outer loop
      vertex -5.20355 1.89394 35
      vertex -4.24197 3.55944 4
      vertex -4.24197 3.55944 35
    endloop
  endfacet
  facet normal 0.866025 -0.5 0
    outer loop
      vertex -4.24197 3.55944 4
      vertex -5.20355 1.89394 35
      vertex -5.20355 1.89394 4
    endloop
  endfacet
  facet normal 0.642787 0.766045 -0
    outer loop
      vertex -2.76875 -4.79562 4
      vertex -4.24197 -3.55944 35
      vertex -2.76875 -4.79562 35
    endloop
  endfacet
  facet normal 0.642787 0.766045 0
    outer loop
      vertex -4.24197 -3.55944 35
      vertex -2.76875 -4.79562 4
      vertex -4.24197 -3.55944 4
    endloop
  endfacet
  facet normal 0.866025 0.5 0
    outer loop
      vertex -4.24197 -3.55944 35
      vertex -5.20355 -1.89394 4
      vertex -5.20355 -1.89394 35
    endloop
  endfacet
  facet normal 0.866025 0.5 0
    outer loop
      vertex -5.20355 -1.89394 4
      vertex -4.24197 -3.55944 35
      vertex -4.24197 -3.55944 4
    endloop
  endfacet
  facet normal -0.34202 0.939693 0
    outer loop
      vertex 2.76875 -4.79562 4
      vertex 0.961576 -5.45337 35
      vertex 2.76875 -4.79562 35
    endloop
  endfacet
  facet normal -0.34202 0.939693 0
    outer loop
      vertex 0.961576 -5.45337 35
      vertex 2.76875 -4.79562 4
      vertex 0.961576 -5.45337 4
    endloop
  endfacet
  facet normal -0.642788 0.766044 0
    outer loop
      vertex 3.475 -4.203 4
      vertex 2.76875 -4.79562 35
      vertex 3.475 -4.203 35
    endloop
  endfacet
  facet normal -0.642788 0.766044 0
    outer loop
      vertex 2.76875 -4.79562 35
      vertex 3.475 -4.203 4
      vertex 2.76875 -4.79562 4
    endloop
  endfacet
  facet normal 0 0 1
    outer loop
      vertex 0.961576 5.45337 4
      vertex 3.475 4.203 4
      vertex 2.76875 4.79562 4
    endloop
  endfacet
  facet normal -0 0 1
    outer loop
      vertex -0.961576 5.45337 4
      vertex 3.475 4.203 4
      vertex 0.961576 5.45337 4
    endloop
  endfacet
  facet normal -0 0 1
    outer loop
      vertex -2.76875 4.79562 4
      vertex 3.475 4.203 4
      vertex -0.961576 5.45337 4
    endloop
  endfacet
  facet normal 0 0 1
    outer loop
      vertex 3.475 -4.203 4
      vertex 0.961576 -5.45337 4
      vertex 2.76875 -4.79562 4
    endloop
  endfacet
  facet normal 0 0 1
    outer loop
      vertex -4.24197 3.55944 4
      vertex 3.475 4.203 4
      vertex -2.76875 4.79562 4
    endloop
  endfacet
  facet normal 0 0 1
    outer loop
      vertex 3.475 -4.203 4
      vertex -0.961576 -5.45337 4
      vertex 0.961576 -5.45337 4
    endloop
  endfacet
  facet normal 0 0 1
    outer loop
      vertex 3.475 4.203 4
      vertex -4.24197 3.55944 4
      vertex 3.475 -4.203 4
    endloop
  endfacet
  facet normal 0 0 1
    outer loop
      vertex 3.475 -4.203 4
      vertex -2.76875 -4.79562 4
      vertex -0.961576 -5.45337 4
    endloop
  endfacet
  facet normal -0 0 1
    outer loop
      vertex -4.24197 -3.55944 4
      vertex 3.475 -4.203 4
      vertex -4.24197 3.55944 4
    endloop
  endfacet
  facet normal 0 0 1
    outer loop
      vertex 3.475 -4.203 4
      vertex -4.24197 -3.55944 4
      vertex -2.76875 -4.79562 4
    endloop
  endfacet
  facet normal -0 0 1
    outer loop
      vertex -5.20355 1.89394 4
      vertex -4.24197 -3.55944 4
      vertex -4.24197 3.55944 4
    endloop
  endfacet
  facet normal 0 0 1
    outer loop
      vertex -5.20355 1.89394 4
      vertex -5.20355 -1.89394 4
      vertex -4.24197 -3.55944 4
    endloop
  endfacet
  facet normal 0 -0 1
    outer loop
      vertex -5.20355 -1.89394 4
      vertex -5.20355 1.89394 4
      vertex -5.5375 0 4
    endloop
  endfacet
  facet normal 0 1 -0
    outer loop
      vertex 0.961576 -5.45337 4
      vertex -0.961576 -5.45337 35
      vertex 0.961576 -5.45337 35
    endloop
  endfacet
  facet normal 0 1 0
    outer loop
      vertex -0.961576 -5.45337 35
      vertex 0.961576 -5.45337 4
      vertex -0.961576 -5.45337 4
    endloop
  endfacet
  facet normal 0.34202 0.939693 -0
    outer loop
      vertex -0.961576 -5.45337 4
      vertex -2.76875 -4.79562 35
      vertex -0.961576 -5.45337 35
    endloop
  endfacet
  facet normal 0.34202 0.939693 0
    outer loop
      vertex -2.76875 -4.79562 35
      vertex -0.961576 -5.45337 4
      vertex -2.76875 -4.79562 4
    endloop
  endfacet
  facet normal 0 -0.309017 -0.951056
    outer loop
      vertex 2.475 0 3
      vertex -7.00968 1.76336 2.42705
      vertex 2.475 1.76336 2.42705
    endloop
  endfacet
  facet normal -3.82708e-08 -0.309017 -0.951056
    outer loop
      vertex -7.00968 1.76336 2.42705
      vertex 2.475 0 3
      vertex -7.04004 1.63692 2.46813
    endloop
  endfacet
  facet normal 0 -0.809017 -0.587785
    outer loop
      vertex -6.89516 2.24037 1.77049
      vertex 2.475 1.76336 2.42705
      vertex -7.00968 1.76336 2.42705
    endloop
  endfacet
  facet normal 2.86874e-09 -0.809017 -0.587785
    outer loop
      vertex -6.64133 2.85317 0.927051
      vertex 2.475 1.76336 2.42705
      vertex -6.89516 2.24037 1.77049
    endloop
  endfacet
  facet normal 0 -0.809017 -0.587785
    outer loop
      vertex 2.475 1.76336 2.42705
      vertex -6.64133 2.85317 0.927051
      vertex 2.475 2.85317 0.927051
    endloop
  endfacet
  facet normal 7.3512e-08 -0.309017 -0.951057
    outer loop
      vertex 2.475 0 3
      vertex -7.16074 1.13415 2.63149
      vertex -7.04004 1.63692 2.46813
    endloop
  endfacet
  facet normal 9.32646e-08 -0.309017 -0.951057
    outer loop
      vertex -7.16074 1.13415 2.63149
      vertex 2.475 0 3
      vertex -7.25 0 3
    endloop
  endfacet
  facet normal 0 -1 0
    outer loop
      vertex -6.64133 2.85317 0
      vertex 2.475 2.85317 0.927051
      vertex -6.64133 2.85317 0.927051
    endloop
  endfacet
  facet normal 0 -1 -0
    outer loop
      vertex 2.475 2.85317 0.927051
      vertex -6.64133 2.85317 0
      vertex 2.475 2.85317 0
    endloop
  endfacet
  facet normal 0 1 -0
    outer loop
      vertex 2.475 -2.85317 0
      vertex -6.64133 -2.85317 0.927051
      vertex 2.475 -2.85317 0.927051
    endloop
  endfacet
  facet normal 0 1 0
    outer loop
      vertex -6.64133 -2.85317 0.927051
      vertex 2.475 -2.85317 0
      vertex -6.64133 -2.85317 0
    endloop
  endfacet
  facet normal 0 0.809017 -0.587785
    outer loop
      vertex 2.475 -1.76336 2.42705
      vertex -6.89516 -2.24037 1.77049
      vertex -7.00968 -1.76336 2.42705
    endloop
  endfacet
  facet normal 0 0.809017 -0.587785
    outer loop
      vertex -6.64133 -2.85317 0.927051
      vertex 2.475 -1.76336 2.42705
      vertex 2.475 -2.85317 0.927051
    endloop
  endfacet
  facet normal 2.86874e-09 0.809017 -0.587785
    outer loop
      vertex 2.475 -1.76336 2.42705
      vertex -6.64133 -2.85317 0.927051
      vertex -6.89516 -2.24037 1.77049
    endloop
  endfacet
  facet normal -1 0 0
    outer loop
      vertex 2.475 2.85317 0
      vertex 2.475 1.76336 2.42705
      vertex 2.475 2.85317 0.927051
    endloop
  endfacet
  facet normal -1 0 0
    outer loop
      vertex 2.475 2.85317 0
      vertex 2.475 0 3
      vertex 2.475 1.76336 2.42705
    endloop
  endfacet
  facet normal -1 0 0
    outer loop
      vertex 2.475 -2.85317 0
      vertex 2.475 0 3
      vertex 2.475 2.85317 0
    endloop
  endfacet
  facet normal -1 0 0
    outer loop
      vertex 2.475 0 3
      vertex 2.475 -2.85317 0
      vertex 2.475 -1.76336 2.42705
    endloop
  endfacet
  facet normal -1 0 0
    outer loop
      vertex 2.475 -1.76336 2.42705
      vertex 2.475 -2.85317 0
      vertex 2.475 -2.85317 0.927051
    endloop
  endfacet
  facet normal 7.3512e-08 0.309017 -0.951057
    outer loop
      vertex -7.16074 -1.13415 2.63149
      vertex 2.475 0 3
      vertex -7.04004 -1.63692 2.46813
    endloop
  endfacet
  facet normal 9.32646e-08 0.309017 -0.951057
    outer loop
      vertex 2.475 0 3
      vertex -7.16074 -1.13415 2.63149
      vertex -7.25 0 3
    endloop
  endfacet
  facet normal 0 0.309017 -0.951056
    outer loop
      vertex -7.00968 -1.76336 2.42705
      vertex 2.475 0 3
      vertex 2.475 -1.76336 2.42705
    endloop
  endfacet
  facet normal -3.82708e-08 0.309017 -0.951056
    outer loop
      vertex 2.475 0 3
      vertex -7.00968 -1.76336 2.42705
      vertex -7.04004 -1.63692 2.46813
    endloop
  endfacet
  facet normal 1 0 0
    outer loop
      vertex 1.75 -6.67394 18.625
      vertex 1.75 -7.25 18.9576
      vertex 1.75 -7.25 18.625
    endloop
  endfacet
  facet normal 0 -0.5 0.866025
    outer loop
      vertex 1.75 -6.67394 12.475
      vertex 4.75 -7.25 12.1424
      vertex 4.75 -6.67394 12.475
    endloop
  endfacet
  facet normal 0 -0.5 0.866025
    outer loop
      vertex 4.75 -7.25 12.1424
      vertex 1.75 -6.67394 12.475
      vertex 1.75 -7.25 12.1424
    endloop
  endfacet
  facet normal 0 -0.5 -0.866025
    outer loop
      vertex 1.75 -7.25 18.9576
      vertex 4.75 -6.67394 18.625
      vertex 4.75 -7.25 18.9576
    endloop
  endfacet
  facet normal -0 -0.5 -0.866025
    outer loop
      vertex 4.75 -6.67394 18.625
      vertex 1.75 -7.25 18.9576
      vertex 1.75 -6.67394 18.625
    endloop
  endfacet
  facet normal 0 -1 0
    outer loop
      vertex 1.75 -6.67394 12.475
      vertex 4.75 -6.67394 18.625
      vertex 1.75 -6.67394 18.625
    endloop
  endfacet
  facet normal 0 -1 -0
    outer loop
      vertex 4.75 -6.67394 18.625
      vertex 1.75 -6.67394 12.475
      vertex 4.75 -6.67394 12.475
    endloop
  endfacet
  facet normal -1 0 0
    outer loop
      vertex 4.75 -6.67394 12.475
      vertex 4.75 -7.25 12.475
      vertex 4.75 -7.25 13.4728
    endloop
  endfacet
  facet normal 1 0 1.19477e-07
    outer loop
      vertex 1.75 -7.25 17.6272
      vertex 1.75 -6.67394 18.625
      vertex 1.75 -7.25 18.625
    endloop
  endfacet
  facet normal -1 -2.68587e-07 -1.55069e-07
    outer loop
      vertex 4.75 -7.25 13.4728
      vertex 4.75 -6.67394 18.625
      vertex 4.75 -6.67394 12.475
    endloop
  endfacet
  facet normal -1 -1.00387e-07 -1.73875e-07
    outer loop
      vertex 4.75 -6.67394 18.625
      vertex 4.75 -7.25 13.4728
      vertex 4.75 -7.25 18.9576
    endloop
  endfacet
  facet normal 1 -6.1647e-08 1.55069e-07
    outer loop
      vertex 1.75 -7.25 17.6272
      vertex 1.75 -6.67394 12.475
      vertex 1.75 -6.67394 18.625
    endloop
  endfacet
  facet normal 1 -8.78384e-08 1.52141e-07
    outer loop
      vertex 1.75 -6.67394 12.475
      vertex 1.75 -7.25 17.6272
      vertex 1.75 -7.25 12.1424
    endloop
  endfacet
  facet normal -1 0 0
    outer loop
      vertex 4.75 -7.25 12.475
      vertex 4.75 -6.67394 12.475
      vertex 4.75 -7.25 12.1424
    endloop
  endfacet
  facet normal 0 0.5 -0.866025
    outer loop
      vertex 1.75 6.67394 18.625
      vertex 4.75 7.25 18.9576
      vertex 4.75 6.67394 18.625
    endloop
  endfacet
  facet normal 0 0.5 -0.866025
    outer loop
      vertex 4.75 7.25 18.9576
      vertex 1.75 6.67394 18.625
      vertex 1.75 7.25 18.9576
    endloop
  endfacet
  facet normal -1 0 0
    outer loop
      vertex 4.75 7.25 12.475
      vertex 4.75 6.67394 12.475
      vertex 4.75 7.25 13.4728
    endloop
  endfacet
  facet normal -1 2.68587e-07 -1.55069e-07
    outer loop
      vertex 4.75 6.67394 18.625
      vertex 4.75 7.25 13.4728
      vertex 4.75 6.67394 12.475
    endloop
  endfacet
  facet normal -1 1.00387e-07 -1.73875e-07
    outer loop
      vertex 4.75 7.25 13.4728
      vertex 4.75 6.67394 18.625
      vertex 4.75 7.25 18.9576
    endloop
  endfacet
  facet normal 1 0 1.19477e-07
    outer loop
      vertex 1.75 7.25 17.6272
      vertex 1.75 7.25 18.625
      vertex 1.75 6.67394 18.625
    endloop
  endfacet
  facet normal 1 6.1647e-08 1.55069e-07
    outer loop
      vertex 1.75 6.67394 12.475
      vertex 1.75 7.25 17.6272
      vertex 1.75 6.67394 18.625
    endloop
  endfacet
  facet normal 1 8.78384e-08 1.52141e-07
    outer loop
      vertex 1.75 7.25 17.6272
      vertex 1.75 6.67394 12.475
      vertex 1.75 7.25 12.1424
    endloop
  endfacet
  facet normal -1 -0 -0
    outer loop
      vertex 4.75 7.25 12.475
      vertex 4.75 7.25 12.1424
      vertex 4.75 6.67394 12.475
    endloop
  endfacet
  facet normal 1 0 -0
    outer loop
      vertex 1.75 7.25 18.625
      vertex 1.75 7.25 18.9576
      vertex 1.75 6.67394 18.625
    endloop
  endfacet
  facet normal -0 0.5 0.866025
    outer loop
      vertex 1.75 7.25 12.1424
      vertex 4.75 6.67394 12.475
      vertex 4.75 7.25 12.1424
    endloop
  endfacet
  facet normal 0 0.5 0.866025
    outer loop
      vertex 4.75 6.67394 12.475
      vertex 1.75 7.25 12.1424
      vertex 1.75 6.67394 12.475
    endloop
  endfacet
  facet normal 0 1 0
    outer loop
      vertex 4.75 6.67394 12.475
      vertex 1.75 6.67394 18.625
      vertex 4.75 6.67394 18.625
    endloop
  endfacet
  facet normal 0 1 0
    outer loop
      vertex 1.75 6.67394 18.625
      vertex 4.75 6.67394 12.475
      vertex 1.75 6.67394 12.475
    endloop
  endfacet
endsolid OpenSCAD_Model
